<svg width="20" height="20" viewBox="0 0 20 20" fill="none" xmlns="http://www.w3.org/2000/svg">
<path d="M10 5.59722C9.1576 5.59722 8.33411 5.84078 7.63368 6.29709C6.93325 6.7534 6.38733 7.40198 6.06496 8.1608C5.74258 8.91962 5.65824 9.75461 5.82258 10.5602C5.98693 11.3657 6.39258 12.1057 6.98825 12.6865C7.58392 13.2672 8.34284 13.6627 9.16906 13.823C9.99528 13.9832 10.8517 13.901 11.6299 13.5867C12.4082 13.2724 13.0734 12.7401 13.5414 12.0572C14.0095 11.3742 14.2593 10.5713 14.2593 9.75C14.2593 8.64861 13.8105 7.59234 13.0118 6.81354C12.213 6.03475 11.1296 5.59722 10 5.59722ZM10 11.7361C9.59711 11.7361 9.20327 11.6196 8.86828 11.4014C8.53329 11.1832 8.2722 10.873 8.11802 10.5101C7.96384 10.1471 7.9235 9.7478 8.0021 9.36253C8.0807 8.97726 8.27471 8.62337 8.5596 8.34561C8.84448 8.06784 9.20745 7.87869 9.60259 7.80205C9.99774 7.72542 10.4073 7.76475 10.7795 7.91507C11.1518 8.0654 11.4699 8.31996 11.6937 8.64658C11.9176 8.97319 12.037 9.35718 12.037 9.75C12.0346 10.276 11.8192 10.7798 11.4377 11.1518C11.0562 11.5237 10.5395 11.7337 10 11.7361ZM14.4444 0H5.55556C4.08213 0 2.66905 0.570683 1.62718 1.5865C0.585316 2.60233 0 3.98008 0 5.41667V14.0833C0 15.5199 0.585316 16.8977 1.62718 17.9135C2.66905 18.9293 4.08213 19.5 5.55556 19.5H14.4444C15.9179 19.5 17.3309 18.9293 18.3728 17.9135C19.4147 16.8977 20 15.5199 20 14.0833V5.41667C20 3.98008 19.4147 2.60233 18.3728 1.5865C17.3309 0.570683 15.9179 0 14.4444 0ZM17.7778 14.0833C17.7778 14.9453 17.4266 15.7719 16.8015 16.3814C16.1763 16.9909 15.3285 17.3333 14.4444 17.3333H5.55556C4.6715 17.3333 3.82365 16.9909 3.19853 16.3814C2.57341 15.7719 2.22222 14.9453 2.22222 14.0833V5.41667C2.22222 4.55471 2.57341 3.72806 3.19853 3.11857C3.82365 2.50908 4.6715 2.16667 5.55556 2.16667H14.4444C15.3285 2.16667 16.1763 2.50908 16.8015 3.11857C17.4266 3.72806 17.7778 4.55471 17.7778 5.41667V14.0833ZM16.2963 5.05556C16.2963 5.34124 16.2094 5.62051 16.0466 5.85805C15.8838 6.09558 15.6525 6.28072 15.3818 6.39005C15.111 6.49937 14.8132 6.52798 14.5258 6.47225C14.2384 6.41651 13.9744 6.27894 13.7672 6.07693C13.5601 5.87492 13.419 5.61755 13.3618 5.33735C13.3046 5.05716 13.334 4.76673 13.4461 4.50279C13.5582 4.23885 13.7481 4.01326 13.9917 3.85454C14.2354 3.69583 14.5218 3.61111 14.8148 3.61111C15.2077 3.61111 15.5845 3.76329 15.8624 4.03418C16.1402 4.30507 16.2963 4.67246 16.2963 5.05556Z" fill="black"/>
</svg>
