<svg width="20" height="20" viewBox="0 0 20 20" fill="" xmlns="http://www.w3.org/2000/svg">
<path d="M15.8673 3.055C14.9954 2.20959 14.5149 1.12389 14.5153 0H10.574V13.4333C10.5436 14.1603 10.1822 14.8488 9.56603 15.354C8.94982 15.8592 8.12685 16.1416 7.27041 16.1417C5.45918 16.1417 3.95408 14.885 3.95408 13.325C3.95408 11.4617 6.07143 10.0642 8.25255 10.6383V7.215C3.85204 6.71667 0 9.62 0 13.325C0 16.9325 3.52041 19.5 7.25765 19.5C11.2628 19.5 14.5153 16.7375 14.5153 13.325V6.51083C16.1135 7.48567 18.0324 8.0087 20 8.00583V4.65833C20 4.65833 17.602 4.75583 15.8673 3.055Z" fill="white"/>
</svg>
